<mxfile host="app.diagrams.net" modified="2024-05-30T16:38:18.696Z" agent="Mozilla/5.0 (Windows NT 10.0; Win64; x64) AppleWebKit/537.36 (KHTML, like Gecko) Chrome/125.0.0.0 Safari/537.36" version="24.4.10" etag="58HqYRj94iMxlL5Bg5WH" type="github">
  <diagram name="Page-1" id="CZJfWLp7Vn_21RB5briY">
    <mxGraphModel>
      <root>
        <mxCell id="0" />
        <mxCell id="1" parent="0" />
      </root>
    </mxGraphModel>
  </diagram>
</mxfile>
